<svg xmlns="http://www.w3.org/2000/svg" width="28" height="24" fill="none" viewBox="0 0 28 24"><path fill="#fff" fill-opacity=".8" fill-rule="evenodd" d="M20.5859 0C22.3739 0 24.0939 0.706667 25.3592 1.97467C26.6259 3.24 27.3339 4.94667 27.3339 6.73333V17.2667C27.3339 20.9867 24.3072 24 20.5859 24H7.4139C3.69257 24 0.667236 20.9867 0.667236 17.2667V6.73333C0.667236 3.01333 3.67924 0 7.4139 0H20.5859ZM22.7072 8.72L22.8139 8.61333C23.1326 8.22667 23.1326 7.66667 22.7992 7.28C22.6139 7.08133 22.3592 6.96 22.0939 6.93333C21.8139 6.91867 21.5472 7.01333 21.3459 7.2L15.3339 12C14.5606 12.6413 13.4526 12.6413 12.6672 12L6.66724 7.2C6.25257 6.89333 5.67924 6.93333 5.3339 7.29333C4.9739 7.65333 4.9339 8.22667 5.23924 8.62667L5.4139 8.8L11.4806 13.5333C12.2272 14.12 13.1326 14.44 14.0806 14.44C15.0259 14.44 15.9472 14.12 16.6926 13.5333L22.7072 8.72Z" clip-rule="evenodd"/></svg>