<svg width="28" height="24" viewBox="0 0 28 24" fill="none" xmlns="http://www.w3.org/2000/svg">
<path fill-rule="evenodd" clip-rule="evenodd" d="M20.5858 0C22.3738 0 24.0938 0.706667 25.3592 1.97467C26.6258 3.24 27.3338 4.94667 27.3338 6.73333V17.2667C27.3338 20.9867 24.3072 24 20.5858 24H7.41384C3.69251 24 0.667175 20.9867 0.667175 17.2667V6.73333C0.667175 3.01333 3.67917 0 7.41384 0H20.5858ZM22.7072 8.72L22.8138 8.61333C23.1325 8.22667 23.1325 7.66667 22.7992 7.28C22.6138 7.08133 22.3592 6.96 22.0938 6.93333C21.8138 6.91867 21.5472 7.01333 21.3458 7.2L15.3338 12C14.5605 12.6413 13.4525 12.6413 12.6672 12L6.66717 7.2C6.25251 6.89333 5.67917 6.93333 5.33384 7.29333C4.97384 7.65333 4.93384 8.22667 5.23917 8.62667L5.41384 8.8L11.4805 13.5333C12.2272 14.12 13.1325 14.44 14.0805 14.44C15.0258 14.44 15.9472 14.12 16.6925 13.5333L22.7072 8.72Z" fill="white"/>
</svg>