<svg width="28" height="28" viewBox="0 0 28 28" fill="none" xmlns="http://www.w3.org/2000/svg">
<path fill-rule="evenodd" clip-rule="evenodd" d="M20.2203 0.680452C22.1384 0.560576 24.0298 1.22655 25.455 2.53187C26.7603 3.95706 27.4263 5.84844 27.3197 7.77977V20.2202C27.4396 22.1516 26.7603 24.0429 25.4683 25.4681C24.0431 26.7735 22.1384 27.4394 20.2203 27.3196H7.77979C5.84843 27.4394 3.95704 26.7735 2.53184 25.4681C1.22651 24.0429 0.560529 22.1516 0.680406 20.2202V7.77977C0.560529 5.84844 1.22651 3.95706 2.53184 2.53187C3.95704 1.22655 5.84843 0.560576 7.77979 0.680452H20.2203ZM12.6415 20.46L21.6056 11.4693C22.4181 10.6435 22.4181 9.31152 21.6056 8.49903L19.874 6.76749C19.0482 5.94168 17.7163 5.94168 16.8904 6.76749L15.998 7.67322C15.8648 7.80641 15.8648 8.03285 15.998 8.16604C15.998 8.16604 18.1158 10.2705 18.1558 10.3238C18.3023 10.4836 18.3956 10.6968 18.3956 10.9365C18.3956 11.416 18.0093 11.8156 17.5165 11.8156C17.29 11.8156 17.0769 11.7224 16.9304 11.5758L14.706 9.3648C14.5995 9.25824 14.413 9.25824 14.3064 9.3648L7.95294 15.7182C7.51339 16.1578 7.26032 16.7438 7.247 17.3699L7.16708 20.5266C7.16708 20.6997 7.22036 20.8596 7.34024 20.9795C7.46011 21.0993 7.61995 21.1659 7.79311 21.1659H10.9232C11.5626 21.1659 12.1753 20.9129 12.6415 20.46Z" fill="white" fill-opacity="0.8"/>
</svg>