<svg width="28" height="28" viewBox="0 0 28 28" fill="none" xmlns="http://www.w3.org/2000/svg">
<path fill-rule="evenodd" clip-rule="evenodd" d="M20.6809 17.4683C21.2329 17.4683 21.6809 17.0203 21.6809 16.4683V13.9989C21.6809 13.4469 21.2329 12.9989 20.6809 12.9989H13.0916C12.6596 11.5763 11.3503 10.5309 9.78759 10.5309C7.87559 10.5309 6.31959 12.0869 6.31959 13.9989C6.31959 15.9123 7.87559 17.4683 9.78759 17.4683C11.3503 17.4683 12.6596 16.4229 13.0916 14.9989H15.9076V16.4683C15.9076 17.0203 16.3556 17.4683 16.9076 17.4683C17.4596 17.4683 17.9076 17.0203 17.9076 16.4683V14.9989H19.6809V16.4683C19.6809 17.0203 20.1289 17.4683 20.6809 17.4683ZM8.22093 0.6656H19.7796C24.2969 0.6656 27.3329 3.83627 27.3329 8.55493V19.4443C27.3329 24.1629 24.2969 27.3323 19.7783 27.3323H8.22093C3.70226 27.3323 0.66626 24.1629 0.66626 19.4443V8.55493C0.66626 3.83627 3.70226 0.6656 8.22093 0.6656ZM8.31839 14.0001C8.31839 13.1895 8.97839 12.5308 9.78773 12.5308C10.5971 12.5308 11.2571 13.1895 11.2571 14.0001C11.2571 14.8095 10.5971 15.4681 9.78773 15.4681C8.97839 15.4681 8.31839 14.8095 8.31839 14.0001Z" fill="white" fill-opacity="0.8"/>
</svg>